<mxGraphModel dx="1215" dy="978" grid="1" gridSize="10" guides="1" tooltips="1" connect="1" arrows="1" fold="1" page="1" pageScale="1" pageWidth="850" pageHeight="1100" math="0" shadow="0">
  <root>
    <mxCell id="0" />
    <mxCell id="1" parent="0" />
    <!-- Start -->
    <mxCell id="2" value="เริ่มต้น" style="ellipse;whiteSpace=wrap;html=1;fillColor=#dae8fc;strokeColor=#6c8ebf;" vertex="1" parent="1">
      <mxGeometry x="360" y="20" width="100" height="50" as="geometry" />
    </mxCell>
    <!-- Process: Initialization -->
    <mxCell id="3" value="ประกาศตัวแปร:&lt;br&gt;employee_id, working_hours,&lt;br&gt;salary_per_hour, total_salary" style="rounded=0;whiteSpace=wrap;html=1;fillColor=#d5e8d4;strokeColor=#82b366;" vertex="1" parent="1">
      <mxGeometry x="320" y="100" width="180" height="60" as="geometry" />
    </mxCell>
    <!-- IO: Input ID -->
    <mxCell id="4" value="แสดงข้อความ &quot;Input the Employees ID...&quot;&lt;br&gt;และรับค่า employee_id" style="shape=parallelogram;perimeter=parallelogramPerimeter;whiteSpace=wrap;html=1;fixedSize=1;fillColor=#fff2cc;strokeColor=#d6b656;" vertex="1" parent="1">
      <mxGeometry x="305" y="190" width="210" height="60" as="geometry" />
    </mxCell>
    <!-- Condition 1: ID Validation -->
    <mxCell id="5" value="รับค่า employee_id สำเร็จหรือไม่?&lt;br&gt;(scanf != 1)" style="rhombus;whiteSpace=wrap;html=1;fillColor=#f8cecc;strokeColor=#b85450;" vertex="1" parent="1">
      <mxGeometry x="325" y="290" width="170" height="80" as="geometry" />
    </mxCell>
    <!-- Error 1 Path (True) -->
    <mxCell id="6" value="แสดง Error: Invalid input for Employee ID." style="shape=parallelogram;perimeter=parallelogramPerimeter;whiteSpace=wrap;html=1;fixedSize=1;fillColor=#fff2cc;strokeColor=#d6b656;" vertex="1" parent="1">
      <mxGeometry x="100" y="305" width="200" height="50" as="geometry" />
    </mxCell>
    <mxCell id="7" value="คืนค่า 1 (Return 1)" style="rounded=0;whiteSpace=wrap;html=1;fillColor=#d5e8d4;strokeColor=#82b366;" vertex="1" parent="1">
      <mxGeometry x="135" y="420" width="130" height="50" as="geometry" />
    </mxCell>
    <!-- IO: Input Hours (Condition 1 False) -->
    <mxCell id="8" value="แสดงข้อความ &quot;Input the working hrs:&quot;" style="shape=parallelogram;perimeter=parallelogramPerimeter;whiteSpace=wrap;html=1;fixedSize=1;fillColor=#fff2cc;strokeColor=#d6b656;" vertex="1" parent="1">
      <mxGeometry x="305" y="420" width="210" height="50" as="geometry" />
    </mxCell>
    <!-- Condition 2: Hours Validation -->
    <mxCell id="9" value="รับค่า working_hours สำเร็จ&lt;br&gt;หรือ working_hours &lt; 0 ?" style="rhombus;whiteSpace=wrap;html=1;fillColor=#f8cecc;strokeColor=#b85450;" vertex="1" parent="1">
      <mxGeometry x="325" y="520" width="170" height="80" as="geometry" />
    </mxCell>
    <!-- Error 2 Path (True) -->
    <mxCell id="10" value="แสดง Error: Invalid input for working hours." style="shape=parallelogram;perimeter=parallelogramPerimeter;whiteSpace=wrap;html=1;fixedSize=1;fillColor=#fff2cc;strokeColor=#d6b656;" vertex="1" parent="1">
      <mxGeometry x="100" y="635" width="200" height="50" as="geometry" />
    </mxCell>
    <mxCell id="11" value="คืนค่า 1 (Return 1)" style="rounded=0;whiteSpace=wrap;html=1;fillColor=#d5e8d4;strokeColor=#82b366;" vertex="1" parent="1">
      <mxGeometry x="135" y="760" width="130" height="50" as="geometry" />
    </mxCell>
    <!-- IO: Input Salary (Condition 2 False) -->
    <mxCell id="12" value="แสดงข้อความ &quot;Salary amount/hr:&quot;" style="shape=parallelogram;perimeter=parallelogramPerimeter;whiteSpace=wrap;html=1;fixedSize=1;fillColor=#fff2cc;strokeColor=#d6b656;" vertex="1" parent="1">
      <mxGeometry x="305" y="635" width="210" height="50" as="geometry" />
    </mxCell>
    <!-- Condition 3: Rate Validation -->
    <mxCell id="13" value="รับค่า salary_per_hour สำเร็จ&lt;br&gt;หรือ salary_per_hour &lt; 0 ?" style="rhombus;whiteSpace=wrap;html=1;fillColor=#f8cecc;strokeColor=#b85450;" vertex="1" parent="1">
      <mxGeometry x="325" y="740" width="170" height="80" as="geometry" />
    </mxCell>
    <!-- Error 3 Path (True) -->
    <mxCell id="14" value="แสดง Error: Invalid input for salary per hour." style="shape=parallelogram;perimeter=parallelogramPerimeter;whiteSpace=wrap;html=1;fixedSize=1;fillColor=#fff2cc;strokeColor=#d6b656;" vertex="1" parent="1">
      <mxGeometry x="305" y="860" width="210" height="50" as="geometry" />
    </mxCell>
    <mxCell id="15" value="คืนค่า 1 (Return 1)" style="rounded=0;whiteSpace=wrap;html=1;fillColor=#d5e8d4;strokeColor=#82b366;" vertex="1" parent="1">
      <mxGeometry x="345" y="960" width="130" height="50" as="geometry" />
    </mxCell>
    <!-- Process: Calculation (Condition 3 False) -->
    <mxCell id="16" value="คำนวณ:&lt;br&gt;total_salary = working_hours $\times$ salary_per_hour" style="rounded=0;whiteSpace=wrap;html=1;fillColor=#d5e8d4;strokeColor=#82b366;" vertex="1" parent="1">
      <mxGeometry x="540" y="750" width="210" height="60" as="geometry" />
    </mxCell>
    <!-- Output: Result (Success) -->
    <mxCell id="17" value="แสดงผลลัพธ์:&lt;br&gt;ID และ Salary ที่คำนวณได้" style="shape=parallelogram;perimeter=parallelogramPerimeter;whiteSpace=wrap;html=1;fixedSize=1;fillColor=#fff2cc;strokeColor=#d6b656;" vertex="1" parent="1">
      <mxGeometry x="540" y="860" width="210" height="60" as="geometry" />
    </mxCell>
    <!-- Process: Return 0 (Success) -->
    <mxCell id="18" value="คืนค่า 0 (Return 0)" style="rounded=0;whiteSpace=wrap;html=1;fillColor=#d5e8d4;strokeColor=#82b366;" vertex="1" parent="1">
      <mxGeometry x="575" y="960" width="140" height="50" as="geometry" />
    </mxCell>
    <!-- Stop -->
    <mxCell id="19" value="สิ้นสุด" style="ellipse;whiteSpace=wrap;html=1;fillColor=#dae8fc;strokeColor=#6c8ebf;" vertex="1" parent="1">
      <mxGeometry x="490" y="1050" width="100" height="50" as="geometry" />
    </mxCell>
    <!-- Connections -->
    <mxCell id="20" value="" style="endArrow=classic;html=1;" edge="1" parent="1" source="2" target="3">
      <mxGeometry width="50" height="50" relative="1" as="geometry">
        <mxPoint x="410" y="70" as="sourcePoint" />
        <mxPoint x="410" y="100" as="targetPoint" />
      </mxGeometry>
    </mxCell>
    <mxCell id="21" value="" style="endArrow=classic;html=1;" edge="1" parent="1" source="3" target="4">
      <mxGeometry width="50" height="50" relative="1" as="geometry">
        <mxPoint x="410" y="160" as="sourcePoint" />
        <mxPoint x="410" y="190" as="targetPoint" />
      </mxGeometry>
    </mxCell>
    <mxCell id="22" value="" style="endArrow=classic;html=1;" edge="1" parent="1" source="4" target="5">
      <mxGeometry width="50" height="50" relative="1" as="geometry">
        <mxPoint x="410" y="250" as="sourcePoint" />
        <mxPoint x="410" y="290" as="targetPoint" />
      </mxGeometry>
    </mxCell>
    <!-- C1 True Path -->
    <mxCell id="23" value="จริง" style="edgeStyle=orthogonalEdgeStyle;html=1;align=center;verticalAlign=bottom;endArrow=classic;" edge="1" parent="1" source="5" target="6">
      <mxGeometry relative="1" as="geometry">
        <mxPoint x="325" y="330" as="sourcePoint" />
        <Array as="points">
          <mxPoint x="200" y="330" />
        </Array>
      </mxGeometry>
    </mxCell>
    <mxCell id="24" value="" style="endArrow=classic;html=1;" edge="1" parent="1" source="6" target="7">
      <mxGeometry width="50" height="50" relative="1" as="geometry">
        <mxPoint x="200" y="355" as="sourcePoint" />
        <mxPoint x="200" y="420" as="targetPoint" />
      </mxGeometry>
    </mxCell>
    <mxCell id="25" value="" style="endArrow=classic;html=1;entryDx=0;entryDy=0;entryPerimeter=0;" edge="1" parent="1" source="7" target="19">
      <mxGeometry width="50" height="50" relative="1" as="geometry">
        <mxPoint x="200" y="470" as="sourcePoint" />
        <mxPoint x="540" y="1050" as="targetPoint" />
        <Array as="points">
          <mxPoint x="200" y="1030" />
          <mxPoint x="540" y="1030" />
        </Array>
      </mxGeometry>
    </mxCell>
    <!-- C1 False Path -->
    <mxCell id="26" value="เท็จ" style="endArrow=classic;html=1;align=center;verticalAlign=bottom;entryDx=0;entryDy=0;entryPerimeter=0;" edge="1" parent="1" source="5" target="8">
      <mxGeometry relative="1" as="geometry">
        <mxPoint x="410" y="370" as="sourcePoint" />
        <mxPoint x="410" y="420" as="targetPoint" />
      </mxGeometry>
    </mxCell>
    <!-- C2 Flow -->
    <mxCell id="27" value="" style="endArrow=classic;html=1;entryDx=0;entryDy=0;entryPerimeter=0;" edge="1" parent="1" source="8" target="9">
      <mxGeometry width="50" height="50" relative="1" as="geometry">
        <mxPoint x="410" y="470" as="sourcePoint" />
        <mxPoint x="410" y="520" as="targetPoint" />
      </mxGeometry>
    </mxCell>
    <!-- C2 True Path -->
    <mxCell id="28" value="จริง" style="edgeStyle=orthogonalEdgeStyle;html=1;align=center;verticalAlign=bottom;endArrow=classic;" edge="1" parent="1" source="9" target="10">
      <mxGeometry relative="1" as="geometry">
        <mxPoint x="325" y="560" as="sourcePoint" />
        <Array as="points">
          <mxPoint x="200" y="560" />
        </Array>
      </mxGeometry>
    </mxCell>
    <mxCell id="29" value="" style="endArrow=classic;html=1;" edge="1" parent="1" source="10" target="11">
      <mxGeometry width="50" height="50" relative="1" as="geometry">
        <mxPoint x="200" y="685" as="sourcePoint" />
        <mxPoint x="200" y="760" as="targetPoint" />
      </mxGeometry>
    </mxCell>
    <mxCell id="30" value="" style="endArrow=classic;html=1;entryDx=0;entryDy=0;entryPerimeter=0;" edge="1" parent="1" source="11" target="19">
      <mxGeometry width="50" height="50" relative="1" as="geometry">
        <mxPoint x="200" y="810" as="sourcePoint" />
        <mxPoint x="540" y="1050" as="targetPoint" />
        <Array as="points">
          <mxPoint x="200" y="1030" />
          <mxPoint x="540" y="1030" />
        </Array>
      </mxGeometry>
    </mxCell>
    <!-- C2 False Path -->
    <mxCell id="31" value="เท็จ" style="endArrow=classic;html=1;align=center;verticalAlign=bottom;entryDx=0;entryDy=0;entryPerimeter=0;" edge="1" parent="1" source="9" target="12">
      <mxGeometry relative="1" as="geometry">
        <mxPoint x="410" y="600" as="sourcePoint" />
        <mxPoint x="410" y="635" as="targetPoint" />
      </mxGeometry>
    </mxCell>
    <!-- C3 Flow -->
    <mxCell id="32" value="" style="endArrow=classic;html=1;entryDx=0;entryDy=0;entryPerimeter=0;" edge="1" parent="1" source="12" target="13">
      <mxGeometry width="50" height="50" relative="1" as="geometry">
        <mxPoint x="410" y="685" as="sourcePoint" />
        <mxPoint x="410" y="740" as="targetPoint" />
      </mxGeometry>
    </mxCell>
    <!-- C3 True Path -->
    <mxCell id="33" value="จริง" style="endArrow=classic;html=1;align=center;verticalAlign=bottom;" edge="1" parent="1" source="13" target="14">
      <mxGeometry relative="1" as="geometry">
        <mxPoint x="410" y="820" as="sourcePoint" />
        <mxPoint x="410" y="860" as="targetPoint" />
      </mxGeometry>
    </mxCell>
    <mxCell id="34" value="" style="endArrow=classic;html=1;" edge="1" parent="1" source="14" target="15">
      <mxGeometry width="50" height="50" relative="1" as="geometry">
        <mxPoint x="410" y="910" as="sourcePoint" />
        <mxPoint x="410" y="960" as="targetPoint" />
      </mxGeometry>
    </mxCell>
    <mxCell id="35" value="" style="endArrow=classic;html=1;entryDx=0;entryDy=0;entryPerimeter=0;" edge="1" parent="1" source="15" target="19">
      <mxGeometry width="50" height="50" relative="1" as="geometry">
        <mxPoint x="410" y="1010" as="sourcePoint" />
        <mxPoint x="540" y="1050" as="targetPoint" />
        <Array as="points">
          <mxPoint x="410" y="1030" />
          <mxPoint x="540" y="1030" />
        </Array>
      </mxGeometry>
    </mxCell>
    <!-- C3 False Path (Success) -->
    <mxCell id="36" value="เท็จ" style="edgeStyle=orthogonalEdgeStyle;html=1;align=center;verticalAlign=bottom;endArrow=classic;" edge="1" parent="1" source="13" target="16">
      <mxGeometry relative="1" as="geometry">
        <mxPoint x="495" y="780" as="sourcePoint" />
        <Array as="points">
          <mxPoint x="510" y="780" />
        </Array>
      </mxGeometry>
    </mxCell>
    <mxCell id="37" value="" style="endArrow=classic;html=1;" edge="1" parent="1" source="16" target="17">
      <mxGeometry width="50" height="50" relative="1" as="geometry">
        <mxPoint x="645" y="810" as="sourcePoint" />
        <mxPoint x="645" y="860" as="targetPoint" />
      </mxGeometry>
    </mxCell>
    <mxCell id="38" value="" style="endArrow=classic;html=1;" edge="1" parent="1" source="17" target="18">
      <mxGeometry width="50" height="50" relative="1" as="geometry">
        <mxPoint x="645" y="920" as="sourcePoint" />
        <mxPoint x="645" y="960" as="targetPoint" />
      </mxGeometry>
    </mxCell>
    <mxCell id="39" value="" style="endArrow=classic;html=1;" edge="1" parent="1" source="18" target="19">
      <mxGeometry width="50" height="50" relative="1" as="geometry">
        <mxPoint x="645" y="1010" as="sourcePoint" />
        <mxPoint x="540" y="1050" as="targetPoint" />
        <Array as="points">
          <mxPoint x="645" y="1030" />
          <mxPoint x="540" y="1030" />
        </Array>
      </mxGeometry>
    </mxCell>
  </root>
</mxGraphModel>
